<svg width="130" height="130" viewBox="0 0 130 130" xmlns="http://www.w3.org/2000/svg" xmlns:xlink="http://www.w3.org/1999/xlink"><title>Artboard 4 Copy 5</title><defs><ellipse id="path-1" cx="22" cy="22" rx="22" ry="22"/><filter x="-50%" y="-50%" width="200%" height="200%" filterUnits="objectBoundingBox" id="filter-2"><feOffset in="SourceAlpha" result="shadowOffsetOuter1"/><feGaussianBlur stdDeviation="3" in="shadowOffsetOuter1" result="shadowBlurOuter1"/><feColorMatrix values="0 0 0 0 0.360784314 0 0 0 0 0.176470588 0 0 0 0 0.450980392 0 0 0 0.3 0" in="shadowBlurOuter1"/></filter></defs><g id="Icon" fill="none" fill-rule="evenodd"><g id="Artboard-4-Copy-5"><g id="Group-8-Copy" transform="translate(12 13)"><path id="Rectangle-11" stroke="#5C2D73" stroke-width="3" stroke-linecap="round" stroke-linejoin="round" d="M98.366 93.623L80.688 75.945l-4.243 4.243 24.75 24.749"/><path d="M10.694 11.557l-7.803 7.804a2.999 2.999 0 0 0-.005 4.238l14.87 14.87" id="Path" stroke="#5C2D73" stroke-width="3" stroke-linecap="round"/><path d="M67.949 77.348l3.541 3.542a3.004 3.004 0 0 0 4.25.003l5.653-5.652a3.002 3.002 0 0 0-.003-4.25l-3.542-3.542" id="Rectangle-10-Copy-2" stroke="#5C2D73" stroke-width="3"/><path d="M33.2 38.165l4.36 4.551a4 4 0 0 0 5.651-.005 3.997 3.997 0 0 0 .002-5.655l-6.992-6.991-4.975-4.975-9.245-9.246a4.005 4.005 0 0 0-5.66-.003 4.003 4.003 0 0 0-.006 5.65l11.74 11.728" id="Rectangle-13" stroke="#5C2D73" stroke-width="3" stroke-linecap="round" stroke-linejoin="round"/><rect id="Rectangle-12" fill="#5C2D73" transform="scale(1 -1) rotate(45 192.196 0)" x="49.646" y="53.146" width="14" height="6" rx="3"/><path d="M73.602 56.161l4.914-4.913a3 3 0 0 0 .004-4.25L45.995 14.475a3.004 3.004 0 0 0-4.245 0l-9.852 9.853m-7.038 7.104L14.839 41.454c-1.103 1.104-1.052 2.944.124 4.121l16.229 16.228m8.424 8.425l7.837 7.838a3 3 0 0 0 4.249-.004l14.85-14.85" id="Path" stroke="#5C2D73" stroke-width="3" stroke-linecap="round" stroke-linejoin="round"/><path d="M67.96 77.36l11.334-11.334a3.002 3.002 0 0 0-.007-4.237l-5.66-5.66M56.648 73.118l5.66 5.66a2.994 2.994 0 0 0 4.232.002l1.417-1.417M38.965 17.26L24.17 2.462a3.006 3.006 0 0 0-4.248-.005l-2.825 2.825" id="Path" stroke="#5C2D73" stroke-width="3" stroke-linecap="round"/><g id="Group-19" transform="translate(57 9)"><g id="Oval"><use fill="#000" filter="url(#filter-2)" xlink:href="#path-1"/><use fill="#FFBD2B" xlink:href="#path-1"/></g><path d="M7.027 15.639c-.36-.412-.262-.532.225-.266l11.786 6.456a1.067 1.067 0 0 0 1.406-.37l3.547-5.716c.292-.47.804-.498 1.146-.062l10.872 13.89c.34.435.241.556-.235.262L25.371 23.41a1 1 0 0 0-1.38.332l-3.547 5.76c-.291.473-.823.52-1.181.11L7.027 15.64z" id="Fill-1-Copy-3" fill="#FFF" transform="rotate(-90 21.5 22.626)"/></g></g></g></g></svg>