<svg width="130" height="130" viewBox="0 0 130 130" xmlns="http://www.w3.org/2000/svg" xmlns:xlink="http://www.w3.org/1999/xlink"><title>Artboard 4 Copy 7</title><defs><circle id="path-1" cx="85" cy="44" r="22"/><filter x="-50%" y="-50%" width="200%" height="200%" filterUnits="objectBoundingBox" id="filter-2"><feOffset in="SourceAlpha" result="shadowOffsetOuter1"/><feGaussianBlur stdDeviation="3" in="shadowOffsetOuter1" result="shadowBlurOuter1"/><feColorMatrix values="0 0 0 0 0.360784314 0 0 0 0 0.176470588 0 0 0 0 0.450980392 0 0 0 0.3 0" in="shadowBlurOuter1"/></filter></defs><g id="Icon" fill="none" fill-rule="evenodd"><g id="Artboard-4-Copy-7"><g id="Group-11-Copy" transform="translate(12 11)"><path d="M92.906 70.128A47.172 47.172 0 0 0 94 60c0-25.957-21.043-47-47-47a46.887 46.887 0 0 0-16.89 3.126A47.138 47.138 0 0 0 9.143 32.143M1.588 47.839A47.065 47.065 0 0 0 0 60c0 25.957 21.043 47 47 47 18.028 0 33.685-10.15 41.569-25.047" id="Oval-10" stroke="#5C2D73" stroke-width="3" stroke-linecap="round" stroke-linejoin="round"/><path d="M74.67 93.075a.993.993 0 0 1 .08-1.406 1 1 0 0 1 1.405.067l2.69 2.987a.993.993 0 0 1-.08 1.405 1 1 0 0 1-1.407-.067l-2.689-2.986zm-13.315 7.819a.993.993 0 0 1 .579-1.284 1 1 0 0 1 1.288.567l1.44 3.751a.993.993 0 0 1-.578 1.284 1 1 0 0 1-1.289-.567l-1.44-3.751z" id="Rectangle-21" fill="#5C2D73"/><path d="M46.125 62.849c-3.42 1.88-24.008 13.09-25.118 11.002-1.111-2.09 19.73-12.907 23.176-14.676a3.001 3.001 0 0 1 5.885.825 3 3 0 0 1-3.943 2.849z" id="Combined-Shape" fill="#5C2D73"/><rect id="Rectangle-23" stroke="#5C2D73" stroke-width="3" x="39" width="16" height="6" rx="3"/><path id="Rectangle" stroke="#5C2D73" stroke-width="3" d="M44 6h6v7h-6z"/><rect id="Rectangle-20-Copy" fill="#5C2D73" x="45" y="101" width="4" height="7" rx="2"/><path d="M13.399 40.663A38.82 38.82 0 0 0 8 60.473a38.84 38.84 0 0 0 8.886 24.784m4.942 5.006a39.118 39.118 0 0 0 4.997 3.593M75.01 81.639a35.343 35.343 0 0 0 7.157-21.379m-8.673-23.25A35.507 35.507 0 0 0 56 26" id="Oval-4" stroke="#5C2D73" stroke-width="3" stroke-linecap="round"/><path d="M74.67 93.075a.993.993 0 0 1 .08-1.406 1 1 0 0 1 1.405.067l2.69 2.987a.993.993 0 0 1-.08 1.405 1 1 0 0 1-1.407-.067l-2.689-2.986zm-13.315 7.819a.993.993 0 0 1 .579-1.284 1 1 0 0 1 1.288.567l1.44 3.751a.993.993 0 0 1-.578 1.284 1 1 0 0 1-1.289-.567l-1.44-3.751z" id="Rectangle-21" fill="#5C2D73"/><rect id="Rectangle-20-Copy" fill="#5C2D73" x="45" y="101" width="4" height="7" rx="2"/><path d="M28.282 17.384a.993.993 0 0 1 .08-1.405 1 1 0 0 1 1.406.067l2.69 2.986a.993.993 0 0 1-.081 1.405 1 1 0 0 1-1.406-.067l-2.689-2.986zm-13.314 7.819a.993.993 0 0 1 .578-1.283 1 1 0 0 1 1.29.566l1.44 3.752a.993.993 0 0 1-.58 1.283 1 1 0 0 1-1.288-.566l-1.44-3.752z" id="Rectangle-21-Copy" fill="#5C2D73" transform="rotate(180 23.806 22.655)"/><rect id="Rectangle-20-Copy-2" fill="#5C2D73" transform="rotate(180 47 16.5)" x="45" y="13" width="4" height="7" rx="2"/><g id="Oval"><use fill="#000" filter="url(#filter-2)" xlink:href="#path-1"/><use fill="#FFBD2B" xlink:href="#path-1"/></g><text id="€" font-family="Nunito-Black, Nunito" font-size="24" font-weight="700" fill="#FFF"><tspan x="78.3" y="52">€</tspan></text></g></g></g></svg>