<svg width="130" height="130" viewBox="0 0 130 130" xmlns="http://www.w3.org/2000/svg" xmlns:xlink="http://www.w3.org/1999/xlink"><title>Artboard 4 Copy 12</title><defs><ellipse id="path-1" cx="22" cy="22" rx="22" ry="22"/><filter x="-50%" y="-50%" width="200%" height="200%" filterUnits="objectBoundingBox" id="filter-2"><feOffset in="SourceAlpha" result="shadowOffsetOuter1"/><feGaussianBlur stdDeviation="3" in="shadowOffsetOuter1" result="shadowBlurOuter1"/><feColorMatrix values="0 0 0 0 0.360784314 0 0 0 0 0.176470588 0 0 0 0 0.450980392 0 0 0 0.3 0" in="shadowBlurOuter1"/></filter></defs><g id="Icon" fill="none" fill-rule="evenodd"><g id="Artboard-4-Copy-12"><g id="Group-2-Copy" transform="translate(9 13)"><path d="M9 53c0 17.423 9.687 32.584 23.969 40.39m6.597 2.957A45.922 45.922 0 0 0 55 99" id="Oval-7" stroke="#5C2D73" stroke-width="3" stroke-linecap="round" stroke-linejoin="round"/><path d="M8.87 23.638C3.266 32.043 0 42.14 0 53c0 29.271 23.729 53 53 53a52.852 52.852 0 0 0 19.834-3.836m14.179-8.516C98.619 83.926 106 69.325 106 53c0-29.271-23.729-53-53-53a52.775 52.775 0 0 0-32.908 11.451" id="Oval-7" stroke="#5C2D73" stroke-width="3" stroke-linecap="round" stroke-linejoin="round"/><g id="Group-4-Copy" transform="translate(69)"><g id="Oval"><use fill="#000" filter="url(#filter-2)" xlink:href="#path-1"/><use fill="#FFBD2B" xlink:href="#path-1"/></g><path d="M22 33.96C10 27.7 10 19.351 10 19.351c0-2.087 0-7.304 6-8.347 5.999-.147 6 4.173 6 4.173s0-4.173 6-4.173c6 1.043 6 6.26 6 8.347 0 0 0 8.348-12 14.61" id="Fill-1" fill="#FFF"/></g><path d="M32.11 60.356c0-3.23 5.033-5.795 8.49-5.795h2.66l-3.085-28.405-.16-1.064c-.43-2.868-3.541-5.063-6.804-4.633-3.262.43-5.598 3.272-5.158 6.21l.08.531 2.09 13.94m1.365 9.112l.508 3.393v11.978C32.096 77.43 42.301 87 55.048 87c1.74 0 3.434-.178 5.06-.517m8.688-3.737C74.396 78.823 78 72.534 78 65.362V45.535c0-2.967-2.204-5.318-5.88-5.318-3.674 0-6.2 2.351-6.2 5.318v9.026V43.27c0-2.967-.942-5.617-7.868-5.41-.825 4.098-2.31 16.09-2.385 16.702H43.26l4.136-30.514.08-.532c.44-2.937 3.666-4.886 6.929-4.456 3.262.43 5.473 3.095 5.033 6.033l-.16 1.064-3.612 28.405h9.514c3.456 0 6.01 2.408 6.01 6.087s-2.554 5.798-6.01 5.798H44.842l7.06 9.313" id="Combined-Shape" stroke="#5C2D73" stroke-width="3" stroke-linecap="round" stroke-linejoin="round"/></g></g></g></svg>