<svg width="130" height="130" viewBox="0 0 130 130" xmlns="http://www.w3.org/2000/svg" xmlns:xlink="http://www.w3.org/1999/xlink"><title>Artboard 4 Copy 8</title><defs><ellipse id="path-1" cx="22" cy="22" rx="22" ry="22"/><filter x="-50%" y="-50%" width="200%" height="200%" filterUnits="objectBoundingBox" id="filter-2"><feOffset in="SourceAlpha" result="shadowOffsetOuter1"/><feGaussianBlur stdDeviation="3" in="shadowOffsetOuter1" result="shadowBlurOuter1"/><feColorMatrix values="0 0 0 0 0.360784314 0 0 0 0 0.176470588 0 0 0 0 0.450980392 0 0 0 0.3 0" in="shadowBlurOuter1"/></filter></defs><g id="Icon" fill="none" fill-rule="evenodd"><g id="Artboard-4-Copy-8"><g id="Group-5-Copy" transform="translate(9 10)"><path d="M101.494 76.746c6.821 6.82 6.81 17.89-.024 24.724-5.013 5.013-12.305 6.355-18.527 4.022M74.956 99.4c-4.965-6.831-4.358-16.458 1.814-22.63 6.834-6.834 17.904-6.845 24.724-.024M91.32 97.506l6.187-6.187-2.199-8.386-8.386-2.2-6.188 6.188 2.2 8.386 8.386 2.2zM72.351 81.19L31.773 40.61m3.362-3.45c-6.888 5.819-17.3 5.423-23.887-1.165-4.925-4.925-6.351-12.02-4.434-18.061l9.003 9.003c3.1 3.1 8.086 3.137 11.138.085 3.052-3.052 3.014-8.039-.085-11.138l-9.003-9.003c6.04-1.917 13.204-.56 18.13 4.366 5.368 5.369 6.654 13.25 3.798 19.708l23.838 23.838m9.022 9.022l8.535 8.535" id="Combined-Shape-Copy" stroke="#5C2D73" stroke-width="3.75" stroke-linecap="round" stroke-linejoin="round"/><path d="M56 88a31.865 31.865 0 0 1-19.945-6.975A21.899 21.899 0 0 1 25 84C12.85 84 3 74.15 3 62c0-9.733 6.32-17.99 15.081-20.89m23.051-13.453A31.86 31.86 0 0 1 56 24c11.937 0 22.347 6.536 27.847 16.224A22.186 22.186 0 0 1 87 40c12.15 0 22 9.85 22 22a21.93 21.93 0 0 1-6.348 15.46" id="Path" stroke="#5C2D73" stroke-width="3" stroke-linecap="round" stroke-linejoin="round"/><path d="M13.917 53.794A12.946 12.946 0 0 0 11 62c0 5.632 3.581 10.427 8.591 12.233" id="Oval-8" stroke="#5C2D73" stroke-width="3" stroke-linecap="round" stroke-linejoin="round"/><g id="Group-4" transform="translate(69 3)"><g id="Oval"><use fill="#000" filter="url(#filter-2)" xlink:href="#path-1"/><use fill="#FFBD2B" xlink:href="#path-1"/></g><path d="M28.914 15.675l-9.11 8.765-3.718-3.576a2.461 2.461 0 0 0-3.385 0 2.242 2.242 0 0 0 0 3.257l5.41 5.204c.934.9 2.45.9 3.385 0l10.803-10.394a2.242 2.242 0 0 0 0-3.256 2.46 2.46 0 0 0-3.385 0z" id="Stroke-439" fill="#FFF"/></g></g></g></g></svg>