<svg width="130" height="130" viewBox="0 0 130 130" xmlns="http://www.w3.org/2000/svg" xmlns:xlink="http://www.w3.org/1999/xlink"><title>Artboard 4 Copy 10</title><defs><circle id="path-1" cx="89" cy="22" r="22"/><filter x="-50%" y="-50%" width="200%" height="200%" filterUnits="objectBoundingBox" id="filter-2"><feOffset in="SourceAlpha" result="shadowOffsetOuter1"/><feGaussianBlur stdDeviation="3" in="shadowOffsetOuter1" result="shadowBlurOuter1"/><feColorMatrix values="0 0 0 0 0.360784314 0 0 0 0 0.176470588 0 0 0 0 0.450980392 0 0 0 0.3 0" in="shadowBlurOuter1"/></filter></defs><g id="Icon" fill="none" fill-rule="evenodd"><g id="Artboard-4-Copy-10"><g id="Group-7-Copy" transform="translate(10 20)"><path d="M71.116 91.9H8.259c-2.74 0-5.972-1.98-7.21-4.4l-.562-1.1C-.755 83.97.462 82 3.184 82h101.468c2.732 0 3.934 1.98 2.697 4.4l-.563 1.1c-1.242 2.43-4.462 4.4-7.208 4.4H85.569" id="Rectangle-15" stroke="#5C2D73" stroke-width="3" stroke-linecap="round" stroke-linejoin="round"/><path d="M65 84a3 3 0 0 1-3.001 3H46a3.003 3.003 0 0 1-3-3v-3h22v3z" id="Combined-Shape" fill="#5C2D73"/><path d="M7 81.004V70.062m0-10.71V28.997A3 3 0 0 1 9.995 26H51m11.013 0h35.991A2.998 2.998 0 0 1 101 28.996v52.008" id="Rectangle-24-Copy" stroke="#5C2D73" stroke-width="3" stroke-linecap="round"/><path d="M15 81.003v-28.73m0-9.836v-5.443A2.995 2.995 0 0 1 18.01 34h71.98A3.003 3.003 0 0 1 93 36.992v43.986" id="Rectangle-24-Copy-2" stroke="#5C2D73" stroke-width="3" stroke-linecap="round"/><g id="Oval"><use fill="#000" filter="url(#filter-2)" xlink:href="#path-1"/><use fill="#FFBD2B" xlink:href="#path-1"/></g><path d="M84.371 25.429l-.43.413a5.32 5.32 0 0 1-3.705 1.476 5.32 5.32 0 0 1-3.705-1.476 4.92 4.92 0 0 1 0-7.134 5.32 5.32 0 0 1 3.705-1.476c1.4 0 2.715.526 3.705 1.476l2.064 1.985 3.715 3.573 2.544 2.447a6.637 6.637 0 0 0 4.618 1.837c1.748 0 3.387-.651 4.617-1.837 2.553-2.44 2.553-6.428.008-8.876-1.23-1.186-2.87-1.837-4.618-1.837-1.748 0-3.388.651-4.617 1.837l-1.468 1.574" id="Shape" stroke="#FFF" stroke-width="3" stroke-linecap="round" stroke-linejoin="round" fill-rule="nonzero"/><rect id="Rectangle-25" fill="#5C2D73" x="43" y="60" width="3" height="10" rx="1.5"/><rect id="Rectangle-25-Copy" fill="#5C2D73" x="50" y="56" width="3" height="14" rx="1.5"/><rect id="Rectangle-25-Copy-8" fill="#5C2D73" x="64" y="56" width="3" height="14" rx="1.5"/><rect id="Rectangle-25-Copy-2" fill="#5C2D73" x="57" y="46" width="3" height="24" rx="1.5"/></g></g></g></svg>