<svg width="130" height="130" viewBox="0 0 130 130" xmlns="http://www.w3.org/2000/svg" xmlns:xlink="http://www.w3.org/1999/xlink"><title>Artboard 4</title><defs><ellipse id="path-1" cx="22" cy="22" rx="22" ry="22"/><filter x="-50%" y="-50%" width="200%" height="200%" filterUnits="objectBoundingBox" id="filter-2"><feOffset in="SourceAlpha" result="shadowOffsetOuter1"/><feGaussianBlur stdDeviation="3" in="shadowOffsetOuter1" result="shadowBlurOuter1"/><feColorMatrix values="0 0 0 0 0.360784314 0 0 0 0 0.176470588 0 0 0 0 0.450980392 0 0 0 0.3 0" in="shadowBlurOuter1"/></filter></defs><g id="Icon" fill="none" fill-rule="evenodd"><g id="Artboard-4"><g id="Group-Copy" transform="translate(21 12)"><path d="M40.552 21.333c0-4.533-3.768-8.208-8.416-8.208-4.648 0-8.417 3.675-8.417 8.208s3.769 8.208 8.417 8.208 8.416-3.675 8.416-8.208z" id="Path" stroke="#5C2D73" stroke-width="3" stroke-linecap="round" stroke-linejoin="round"/><path d="M27.12 95.03C15.093 95.532 6 97.863 6 100.663c0 3.167 11.64 5.735 26 5.735m15.25-1.09c6.514-1.042 10.75-2.734 10.75-4.645 0-2.859-9.48-5.229-21.883-5.664" id="Oval-2" stroke="#5C2D73" stroke-width="3" stroke-linecap="round" stroke-linejoin="round" fill-opacity="0" fill="#D8D8D8"/><path d="M32.293 0C50.04.093 64.357 15.404 64.27 34.197 64.2 49.079 44.472 82.02 36.09 94.934m-9.013 0c-4.841-7.5-12.183-21.973-18.703-35.375m-5.713-13.36C.993 41.467-.015 37.212 0 33.863.088 15.07 14.546-.091 32.293 0" id="Combined-Shape" stroke="#5C2D73" stroke-width="3" stroke-linecap="round" stroke-linejoin="round"/><g id="Group-20" transform="translate(45)"><g id="Oval"><use fill="#000" filter="url(#filter-2)" xlink:href="#path-1"/><use fill="#FFBD2B" xlink:href="#path-1"/></g><path d="M24 20v-7.009A1.994 1.994 0 0 0 22 11c-1.112 0-2 .891-2 1.991V20h-7.009A1.994 1.994 0 0 0 11 22c0 1.112.891 2 1.991 2H20v7.009C20 32.11 20.895 33 22 33c1.112 0 2-.891 2-1.991V24h7.009A1.994 1.994 0 0 0 33 22c0-1.112-.891-2-1.991-2H24z" id="Combined-Shape" fill="#FFF"/></g><path id="Path" stroke="#5C2D73" stroke-width="3" stroke-linecap="round" stroke-linejoin="round" d="M24 75l8 11.977 5.62-8.147"/><path d="M21.621 70.988L20 68" id="Path-4" stroke="#5C2D73" stroke-width="3" stroke-linecap="round" stroke-linejoin="round"/></g></g></g></svg>