<svg width="130" height="130" viewBox="0 0 130 130" xmlns="http://www.w3.org/2000/svg" xmlns:xlink="http://www.w3.org/1999/xlink"><title>Artboard 4 Copy 6</title><defs><ellipse id="path-1" cx="22" cy="22" rx="22" ry="22"/><filter x="-50%" y="-50%" width="200%" height="200%" filterUnits="objectBoundingBox" id="filter-2"><feOffset in="SourceAlpha" result="shadowOffsetOuter1"/><feGaussianBlur stdDeviation="3" in="shadowOffsetOuter1" result="shadowBlurOuter1"/><feColorMatrix values="0 0 0 0 0.360784314 0 0 0 0 0.176470588 0 0 0 0 0.450980392 0 0 0 0.3 0" in="shadowBlurOuter1"/></filter></defs><g id="Icon" fill="none" fill-rule="evenodd"><g id="Artboard-4-Copy-6"><g id="Group-9-Copy" transform="translate(9 15)"><path d="M66.146 15h36.856A3.004 3.004 0 0 1 106 18.01v62.98c0 1.663-1.34 3.01-3.002 3.01H3.002A3 3 0 0 1 0 81.007V68.85m0-12.323V17.99A2.995 2.995 0 0 1 2.995 15h48.971" id="Rectangle-17" stroke="#5C2D73" stroke-width="3" stroke-linecap="round" stroke-linejoin="round"/><rect id="Rectangle-14" fill="#5C2D73" y="32" width="64" height="3" rx="1.5"/><ellipse id="Oval-3" fill="#5C2D73" cx="8" cy="23" rx="3" ry="3"/><ellipse id="Oval-3-Copy-3" fill="#5C2D73" cx="17" cy="23" rx="3" ry="3"/><ellipse id="Oval-3-Copy-4" fill="#5C2D73" cx="26" cy="23" rx="3" ry="3"/><g id="Group-10" transform="translate(27 46)" stroke="#5C2D73" stroke-width="3" stroke-linecap="round" stroke-linejoin="round"><path d="M39.879.846c-1.193-1.128-3.125-1.128-4.318 0a2.775 2.775 0 0 0 0 4.081L44.63 13.5l-9.068 8.573a2.775 2.775 0 0 0 0 4.081c1.193 1.128 3.125 1.128 4.318 0l11.227-10.613a2.776 2.776 0 0 0 0-4.082l-4.974-4.702" id="Stroke-650"/><path d="M5.212.846C4.02-.282 2.087-.282.895.846a2.775 2.775 0 0 0 0 4.081L9.963 13.5.895 22.073a2.775 2.775 0 0 0 0 4.081c1.192 1.128 3.124 1.128 4.317 0L16.44 15.541a2.776 2.776 0 0 0 0-4.082l-5.287-4.998" id="Stroke-650-Copy" transform="rotate(180 8.667 13.5)"/></g><path d="M95 84v5.05c0 1.656-1.348 3-2.993 3H49.614m-12.918 0H13.993a2.992 2.992 0 0 1-2.993-3v-4.932" id="Rectangle-10" stroke="#5C2D73" stroke-width="3" stroke-linecap="round" stroke-linejoin="round"/><path d="M83 92.118v4.932c0 1.656-1.348 3-2.993 3H66.008m-9.978 0H25.993a2.992 2.992 0 0 1-2.993-3v-4.932" id="Rectangle-10-Copy-3" stroke="#5C2D73" stroke-width="3" stroke-linecap="round"/><g id="Group-4" transform="translate(69)"><g id="Oval"><use fill="#000" filter="url(#filter-2)" xlink:href="#path-1"/><use fill="#FFBD2B" xlink:href="#path-1"/></g><path d="M28.914 15.675l-9.11 8.765-3.718-3.576a2.461 2.461 0 0 0-3.385 0 2.242 2.242 0 0 0 0 3.257l5.41 5.204c.934.9 2.45.9 3.385 0l10.803-10.394a2.242 2.242 0 0 0 0-3.256 2.46 2.46 0 0 0-3.385 0z" id="Stroke-439" fill="#FFF"/></g></g></g></g></svg>