<svg xmlns="http://www.w3.org/2000/svg" width="209.999" height="141" viewBox="0, 0, 209.999, 141"><g id="Layer_1" transform="translate(-394 -229)"><path d="M413.091 229h171.818c10.544 0 19.091 8.609 19.091 19.228v102.545c0 10.619-8.547 19.227-19.091 19.227H413.091C402.548 370 394 361.392 394 350.773V248.228c0-10.619 8.548-19.228 19.091-19.228z" fill="#F5F7FA" id="Rounded_Rectangle_7_copy"/><path d="M463 229v141h-49.909C402.548 370 394 361.392 394 350.773V248.228c0-10.619 8.548-19.228 19.091-19.228H463z" fill="#4758A9" id="Rectangle_1"/><path d="M584.909 229c10.544 0 19.091 8.609 19.091 19.228v102.545c0 10.619-8.547 19.227-19.091 19.227H532V229h52.909z" fill="#ED5565" id="Rectangle_1_copy_2"/></g></svg>