<svg width="130" height="130" viewBox="0 0 130 130" xmlns="http://www.w3.org/2000/svg" xmlns:xlink="http://www.w3.org/1999/xlink"><title>Artboard 4 Copy 9</title><defs><ellipse id="path-1" cx="91" cy="22" rx="22" ry="22"/><filter x="-50%" y="-50%" width="200%" height="200%" filterUnits="objectBoundingBox" id="filter-2"><feOffset in="SourceAlpha" result="shadowOffsetOuter1"/><feGaussianBlur stdDeviation="3" in="shadowOffsetOuter1" result="shadowBlurOuter1"/><feColorMatrix values="0 0 0 0 0.360784314 0 0 0 0 0.176470588 0 0 0 0 0.450980392 0 0 0 0.3 0" in="shadowBlurOuter1"/></filter></defs><g id="Icon" fill="none" fill-rule="evenodd"><g id="Artboard-4-Copy-9"><g id="Group-6-Copy" transform="translate(9 17)"><path d="M65.778 75h37.228A2.994 2.994 0 0 1 106 77.991V96.01a2.994 2.994 0 0 1-3.002 2.99H30.861m-17.044 0H3.002A2.998 2.998 0 0 1 0 96.009V77.99A2.997 2.997 0 0 1 3 75h45.736" id="Rectangle-29-Copy-6" stroke="#5C2D73" stroke-width="3" stroke-linecap="round" stroke-linejoin="round"/><path d="M65.778 42h37.228A2.994 2.994 0 0 1 106 44.991V63.01a2.994 2.994 0 0 1-3.002 2.99H30.861m-17.044 0H3.002A2.998 2.998 0 0 1 0 63.009V44.99A2.997 2.997 0 0 1 3 42h45.736" id="Rectangle-29-Copy-7" stroke="#5C2D73" stroke-width="3" stroke-linecap="round" stroke-linejoin="round"/><path d="M65.778 9h37.228A2.994 2.994 0 0 1 106 11.991V30.01a2.994 2.994 0 0 1-3.002 2.99H30.861m-17.044 0H3.002A2.998 2.998 0 0 1 0 30.009V11.99A2.997 2.997 0 0 1 3 9h45.736" id="Rectangle-29-Copy-8" stroke="#5C2D73" stroke-width="3" stroke-linecap="round" stroke-linejoin="round"/><ellipse id="Oval-3-Copy-8" fill="#5C2D73" cx="93" cy="87" rx="3" ry="3"/><ellipse id="Oval-3-Copy-9" fill="#5C2D73" cx="93" cy="54" rx="3" ry="3"/><ellipse id="Oval-3-Copy-10" fill="#5C2D73" cx="93" cy="21" rx="3" ry="3"/><path d="M52 58.984L55.988 49" id="Path-4-Copy-11" stroke="#5C2D73" stroke-width="3" stroke-linecap="round" stroke-linejoin="round"/><path d="M52 25.984L55.988 16" id="Path-4-Copy-12" stroke="#5C2D73" stroke-width="3" stroke-linecap="round" stroke-linejoin="round"/><path d="M45 58.984L48.988 49" id="Path-4-Copy-16" stroke="#5C2D73" stroke-width="3" stroke-linecap="round" stroke-linejoin="round"/><path d="M59 91.984L62.988 82" id="Path-4-Copy-15" stroke="#5C2D73" stroke-width="3" stroke-linecap="round" stroke-linejoin="round"/><path d="M59 58.984L62.988 49" id="Path-4-Copy-17" stroke="#5C2D73" stroke-width="3" stroke-linecap="round" stroke-linejoin="round"/><path d="M59 25.984L62.988 16" id="Path-4-Copy-19" stroke="#5C2D73" stroke-width="3" stroke-linecap="round" stroke-linejoin="round"/><g id="Oval"><use fill="#000" filter="url(#filter-2)" xlink:href="#path-1"/><use fill="#FFBD2B" xlink:href="#path-1"/></g><path d="M93 20v-7.009A1.994 1.994 0 0 0 91 11c-1.112 0-2 .891-2 1.991V20h-7.009A1.994 1.994 0 0 0 80 22c0 1.112.891 2 1.991 2H89v7.009C89 32.11 89.895 33 91 33c1.112 0 2-.891 2-1.991V24h7.009A1.994 1.994 0 0 0 102 22c0-1.112-.891-2-1.991-2H93z" id="Combined-Shape" fill="#FFF"/></g></g></g></svg>