<svg xmlns="http://www.w3.org/2000/svg" width="210" height="141" viewBox="0, 0, 210, 141"><g id="Layer_1" transform="translate(-621 -174)"><path d="M640.091 174h171.818c10.544 0 19.091 8.608 19.091 19.227v102.546c0 10.619-8.547 19.227-19.091 19.227H640.091C629.547 315 621 306.392 621 295.773V193.227c0-10.619 8.547-19.227 19.091-19.227z" fill="#F5F7FA" id="Rounded_Rectangle_7_copy"/><path d="M811.909 174c10.544 0 19.091 8.608 19.091 19.227V222H621v-28.773c0-10.619 8.547-19.227 19.091-19.227h171.818z" fill="#ED5565" id="Rectangle_1_copy_18"/><path d="M831 267v28.773c0 10.619-8.547 19.227-19.091 19.227H640.091C629.547 315 621 306.392 621 295.773V267h210z" fill="#4A89DC" id="Rectangle_1_copy_18"/></g></svg>