<svg width="130" height="130" viewBox="0 0 130 130" xmlns="http://www.w3.org/2000/svg" xmlns:xlink="http://www.w3.org/1999/xlink"><title>Artboard 4 Copy 11</title><defs><ellipse id="path-1" cx="22" cy="22" rx="22" ry="22"/><filter x="-50%" y="-50%" width="200%" height="200%" filterUnits="objectBoundingBox" id="filter-2"><feOffset in="SourceAlpha" result="shadowOffsetOuter1"/><feGaussianBlur stdDeviation="3" in="shadowOffsetOuter1" result="shadowBlurOuter1"/><feColorMatrix values="0 0 0 0 0.360784314 0 0 0 0 0.176470588 0 0 0 0 0.450980392 0 0 0 0.3 0" in="shadowBlurOuter1"/></filter></defs><g id="Icon" fill="none" fill-rule="evenodd"><g id="Artboard-4-Copy-11"><g id="Group-18-Copy" transform="translate(9 16)"><path d="M66.146 15h36.856A3.004 3.004 0 0 1 106 18.01v62.98c0 1.663-1.34 3.01-3.002 3.01H3.002A3 3 0 0 1 0 81.007V68.85m0-12.323V17.99A2.995 2.995 0 0 1 2.995 15h48.971" id="Rectangle-17" stroke="#5C2D73" stroke-width="3" stroke-linecap="round" stroke-linejoin="round"/><rect id="Rectangle-14" fill="#5C2D73" y="32" width="64" height="3" rx="1.5"/><ellipse id="Oval-3" fill="#5C2D73" cx="8" cy="23" rx="3" ry="3"/><circle id="Oval-3-Copy-3" fill="#5C2D73" cx="17" cy="23" r="3"/><ellipse id="Oval-3-Copy-4" fill="#5C2D73" cx="26" cy="23" rx="3" ry="3"/><path d="M95 84v5.05c0 1.656-1.348 3-2.993 3H49.614m-12.918 0H13.993a2.992 2.992 0 0 1-2.993-3v-4.932" id="Rectangle-10" stroke="#5C2D73" stroke-width="3" stroke-linecap="round" stroke-linejoin="round"/><path d="M83 93v4.932c0 1.656-1.348 3-2.993 3H66.008m-9.978 0H25.993a2.992 2.992 0 0 1-2.993-3V93" id="Rectangle-10-Copy-3" stroke="#5C2D73" stroke-width="3" stroke-linecap="round"/><g id="Group-4" transform="translate(69)"><g id="Oval"><use fill="#000" filter="url(#filter-2)" xlink:href="#path-1"/><use fill="#FFBD2B" xlink:href="#path-1"/></g><path d="M17.371 25.429l-.43.413a5.32 5.32 0 0 1-3.705 1.476 5.32 5.32 0 0 1-3.705-1.476 4.92 4.92 0 0 1 0-7.134 5.32 5.32 0 0 1 3.705-1.476c1.4 0 2.715.526 3.705 1.476l2.064 1.985 3.715 3.573 2.544 2.447a6.637 6.637 0 0 0 4.618 1.837c1.748 0 3.387-.651 4.617-1.837 2.553-2.44 2.553-6.428.008-8.876C33.277 16.65 31.637 16 29.889 16c-1.748 0-3.388.651-4.617 1.837l-1.468 1.574" id="Shape" stroke="#FFF" stroke-width="3" stroke-linecap="round" stroke-linejoin="round" fill-rule="nonzero"/></g><g id="Group-17" transform="translate(34 42)"><g id="Group-13"><rect id="Rectangle-25-Copy-2" fill="#5C2D73" x="2" width="4" height="19" rx="2"/><rect id="Rectangle-25-Copy-5" fill="#5C2D73" x="2" y="25" width="4" height="9" rx="2"/><circle id="Oval-6" stroke="#5C2D73" stroke-width="3" cx="4" cy="22" r="4"/></g><g id="Group-16" transform="translate(32)"><rect id="Rectangle-25-Copy-4" fill="#5C2D73" x="2" width="4" height="19" rx="2"/><rect id="Rectangle-25-Copy-7" fill="#5C2D73" x="2" y="25" width="4" height="9" rx="2"/><circle id="Oval-6-Copy-2" stroke="#5C2D73" stroke-width="3" cx="4" cy="22" r="4"/></g><g id="Group-15" transform="translate(15)"><rect id="Rectangle-25-Copy-3" fill="#5C2D73" x="2" width="4" height="7.5" rx="2"/><rect id="Rectangle-25-Copy-6" fill="#5C2D73" x="2" y="13" width="4" height="21" rx="2"/><circle id="Oval-6-Copy" stroke="#5C2D73" stroke-width="3" cx="4" cy="10" r="4"/></g></g></g></g></g></svg>