<svg width="130" height="130" viewBox="0 0 130 130" xmlns="http://www.w3.org/2000/svg" xmlns:xlink="http://www.w3.org/1999/xlink"><title>Artboard 4 Copy</title><defs><path d="M37 48.814V70l-9.944-4L17 70V48.814l-3.5 1.569-.667-6.5-6.516.472 1.596-6.335-6.285-1.785 3.667-5.408L0 27l5.295-3.827-3.667-5.408 6.285-1.785-1.596-6.335 6.516.471.667-6.499 5.962 2.672L22.312.41 27 4.96 31.689.41l2.85 5.879L40.5 3.617l.667 6.5 6.516-.472-1.596 6.335 6.285 1.785-3.667 5.408L54 27l-5.295 3.827 3.667 5.408-6.285 1.785 1.596 6.335-6.516-.471-.667 6.499-3.5-1.569z" id="path-1"/><filter x="-50%" y="-50%" width="200%" height="200%" filterUnits="objectBoundingBox" id="filter-2"><feOffset in="SourceAlpha" result="shadowOffsetOuter1"/><feGaussianBlur stdDeviation="3" in="shadowOffsetOuter1" result="shadowBlurOuter1"/><feColorMatrix values="0 0 0 0 0.360784314 0 0 0 0 0.176470588 0 0 0 0 0.450980392 0 0 0 0.3 0" in="shadowBlurOuter1"/></filter></defs><g id="Icon" fill="none" fill-rule="evenodd"><g id="Artboard-4-Copy"><g id="Group-3-Copy" transform="translate(15 12)"><path d="M0 19.108V2.999A2.997 2.997 0 0 1 3.003 0h52.025L76 23.012v79.996A2.992 2.992 0 0 1 72.998 106H57.771m-12.673 0H3.002A3.006 3.006 0 0 1 0 103.001v-65.99" id="Rectangle-7" stroke="#5C2D73" stroke-width="3" stroke-linecap="round" stroke-linejoin="round"/><path id="Path-2" stroke="#5C2D73" stroke-width="3" stroke-linecap="round" stroke-linejoin="round" d="M63.985 23.015H54V12"/><path d="M12 50.5c0-.828.668-1.5 1.5-1.5h29.697c.829 0 1.5.666 1.5 1.5 0 .828-.667 1.5-1.5 1.5H13.501A1.496 1.496 0 0 1 12 50.5zm0 9c0-.828.677-1.5 1.492-1.5h24.411c.824 0 1.492.666 1.492 1.5 0 .828-.677 1.5-1.492 1.5h-24.41A1.493 1.493 0 0 1 12 59.5zm0 9c0-.828.668-1.5 1.5-1.5h29.697c.829 0 1.5.666 1.5 1.5 0 .828-.667 1.5-1.5 1.5H13.501A1.496 1.496 0 0 1 12 68.5zm0 9c0-.828.676-1.5 1.501-1.5H48.5c.829 0 1.501.666 1.501 1.5 0 .828-.676 1.5-1.501 1.5h-35c-.828 0-1.5-.666-1.5-1.5zm0-36c0-.828.676-1.5 1.501-1.5H48.5c.829 0 1.501.666 1.501 1.5 0 .828-.676 1.5-1.501 1.5h-35c-.828 0-1.5-.666-1.5-1.5z" id="Combined-Shape" fill="#5C2D73"/><g id="Group-21" transform="translate(46 32)"><g id="Combined-Shape"><use fill="#000" filter="url(#filter-2)" xlink:href="#path-1"/><use fill="#FFBD2B" xlink:href="#path-1"/></g><text id="SLA" font-family="Nunito-Black, Nunito" font-size="16" font-weight="700" fill="#FFF"><tspan x="11" y="32">SLA</tspan></text></g></g></g></g></svg>